<?xml version="1.0" standalone="no"?><!DOCTYPE svg PUBLIC "-//W3C//DTD SVG 1.1//EN" "http://www.w3.org/Graphics/SVG/1.1/DTD/svg11.dtd"><svg t="1577000214542" class="icon" viewBox="0 0 1024 1024" version="1.1" xmlns="http://www.w3.org/2000/svg" p-id="3914" width="200" height="200" xmlns:xlink="http://www.w3.org/1999/xlink"><defs><style type="text/css"></style></defs><path d="M280.576 543.744 280.576 543.744c10.24 13.312 20.48 25.6 31.744 36.864L512 786.432l201.728-207.872c17.408-18.432 28.672-34.816 28.672-34.816l-1.024 0c36.864-51.2 58.368-114.688 58.368-183.296C800.768 191.488 671.744 54.272 512 54.272c-159.744 0-288.768 137.216-288.768 306.176C223.232 430.08 244.736 492.544 280.576 543.744L280.576 543.744zM512 208.896c74.752 0 134.144 60.416 134.144 135.168 0 74.752-60.416 135.168-134.144 135.168-74.752 0-134.144-60.416-134.144-135.168C376.832 269.312 437.248 208.896 512 208.896zM897.024 748.544c-30.72 0-58.368 14.336-75.776 37.888L632.832 786.432c-2.048-4.096-5.12-9.216-7.168-13.312-21.504 21.504-41.984 41.984-57.344 58.368 1.024 4.096 1.024 8.192 1.024 12.288 0 31.744-25.6 58.368-57.344 58.368-31.744 0-57.344-26.624-57.344-58.368 0-10.24 3.072-20.48 8.192-28.672-14.336-19.456-33.792-38.912-53.248-57.344-7.168 9.216-13.312 18.432-18.432 28.672L202.752 786.432c-17.408-22.528-45.056-37.888-75.776-37.888-53.248 0-96.256 43.008-96.256 96.256 0 53.248 43.008 96.256 96.256 96.256 31.744 0 59.392-15.36 76.8-38.912l186.368 0c21.504 45.056 67.584 76.8 121.856 76.8 53.248 0 99.328-31.744 121.856-76.8l187.392 0c17.408 23.552 45.056 38.912 76.8 38.912 53.248 0 96.256-43.008 96.256-96.256C993.28 791.552 950.272 748.544 897.024 748.544zM128 901.12c-30.72 0-58.368-25.6-58.368-56.32s26.624-58.368 58.368-58.368c30.72 0 56.32 26.624 56.32 58.368S158.72 901.12 128 901.12zM898.048 901.12c-30.72 0-58.368-25.6-58.368-56.32s26.624-58.368 58.368-58.368c30.72 0 56.32 26.624 56.32 58.368S928.768 901.12 898.048 901.12z" fill="#34bfa3" p-id="3915"></path></svg>