<?xml version="1.0" standalone="no"?><!DOCTYPE svg PUBLIC "-//W3C//DTD SVG 1.1//EN" "http://www.w3.org/Graphics/SVG/1.1/DTD/svg11.dtd"><svg t="1577001217684" class="icon" viewBox="0 0 1991 1024" version="1.1" xmlns="http://www.w3.org/2000/svg" p-id="14246" xmlns:xlink="http://www.w3.org/1999/xlink" width="486.083984375" height="250"><defs><style type="text/css"></style></defs><path d="M1724.547151 676.737854c-97.271354 30.774153-1085.912363 329.869345-1085.912363 329.869345s-273.725002 95.73549-476.28833-162.460225l224.804906-97.669541c39.022309 13.879655 75.427962 12.685095 123.722336-3.526798l255.522176-66.212781L383.055728 83.325713S305.466181-45.573051 574.640476 17.340468c0 0 487.039374 389.938672 574.811128 461.555417 0 0 44.938228 26.735401 127.817972 0l383.283264-131.970492s259.560928-82.879744 319.288952 65.985246c62.913519 156.089237-158.307706 233.109946-255.294641 263.827215zM162.346458 844.772696C95.564839 766.841845 41.525198 688.854111 0 610.809492c13.765887-95.337303 77.646431-95.337303 191.527864 0 49.887121 41.752733 161.891387 112.174918 195.6235 135.667941L162.346458 844.772696z" p-id="14247" fill="#8a8a8a"></path></svg>