<?xml version="1.0" standalone="no"?><!DOCTYPE svg PUBLIC "-//W3C//DTD SVG 1.1//EN" "http://www.w3.org/Graphics/SVG/1.1/DTD/svg11.dtd"><svg t="1571997551062" class="icon" viewBox="0 0 1024 1024" version="1.1" xmlns="http://www.w3.org/2000/svg" p-id="4792" xmlns:xlink="http://www.w3.org/1999/xlink" width="200" height="200"><defs><style type="text/css"></style></defs><path d="M661.44 600.16l-118.016 211.456 119.904 209.312-0.352-92.096 99.808-1.76c62.368-1.696 96.48-50.592 96.48-50.592l150.944-263.104c32.32-73.952-2.304-124.096-2.304-124.096l-104.896-182.912-207.52 122.24 133.312 234.72c4.864 12.384-2.912 22.4-17.408 22.176l-149.28 1.12-0.672-86.464z" p-id="4793"></path><path d="M359.264 568.576l-121.28-209.536-237.984 1.568 78.592 45.568-48.224 88.992c-29.632 55.904-4.96 110.4-4.96 110.4l148.832 264.32c46.88 65.376 106.816 59.808 106.816 59.808l208-1.504-0.704-244.128-266.272 0.8c-12.96-1.856-17.6-13.728-10.208-26.432l73.408-132.352 73.984 42.496z" p-id="4794"></path><path d="M537.344 318.112l238.88-1.792 117.952-210.464-78.112 46.4-51.456-87.104c-32.672-54.144-91.328-59.744-91.328-59.744l-299.232-1.376c-79.072 8.544-104.384 64.128-104.384 64.128l-103.008 184.032 207.808 121.76 132.832-234.976c8.096-10.496 20.512-8.64 27.584 4.224l75.648 131.04-73.184 43.872z" p-id="4795"></path></svg>