<?xml version="1.0" standalone="no"?><!DOCTYPE svg PUBLIC "-//W3C//DTD SVG 1.1//EN" "http://www.w3.org/Graphics/SVG/1.1/DTD/svg11.dtd"><svg t="1571999024002" class="icon" viewBox="0 0 1024 1024" version="1.1" xmlns="http://www.w3.org/2000/svg" p-id="8638" xmlns:xlink="http://www.w3.org/1999/xlink" width="200" height="200"><defs><style type="text/css"></style></defs><path d="M976 256h-16V160c0-89.6-198.4-160-448-160S64 70.4 64 160v96h-16c-26.5 0-48 21.48-48 48v160c0 26.5 21.5 48 48 48h16v320c0 35.34 28.66 64 64 64v64c0 35.34 28.66 64 64 64h64c35.34 0 64-28.66 64-64v-64h384v64c0 35.34 28.66 64 64 64h64c35.34 0 64-28.66 64-64v-64h12.8c32 0 51.2-25.6 51.2-51.2V512h16c26.5 0 48-21.5 48-48v-160c0-26.52-21.5-48-48-48zM224 800c-35.34 0-64-28.66-64-64s28.66-64 64-64 64 28.66 64 64-28.66 64-64 64z m32-224c-35.34 0-64-28.66-64-64V256c0-35.34 28.66-64 64-64h512c35.34 0 64 28.66 64 64v256c0 35.34-28.66 64-64 64H256z m544 224c-35.34 0-64-28.66-64-64s28.66-64 64-64 64 28.66 64 64-28.66 64-64 64z" fill="" p-id="8639"></path></svg>